M48
; DRILL file {KiCad (5.1.4-0-10_14)} date 2020 August 22, Saturday 16:13:34
; FORMAT={-:-/ absolute / inch / decimal}
; #@! TF.CreationDate,2020-08-22T16:13:34+02:00
; #@! TF.GenerationSoftware,Kicad,Pcbnew,(5.1.4-0-10_14)
; #@! TF.FileFunction,Plated,1,2,PTH
FMAT,2
INCH
T1C0.0157
T2C0.0276
T3C0.0579
%
G90
G05
T1
X5.8438Y-6.2188
X6.0312Y-5.4062
X6.3125Y-5.25
X6.5Y-5.875
X6.5625Y-5.7188
X7.3438Y-5.625
T3
X7.725Y-5.275
X7.7766Y-5.2175
X7.9734Y-5.1978
X7.975Y-5.175
X8.475Y-6.025
X8.5266Y-5.9675
X8.7234Y-5.9478
X8.725Y-5.925
X8.475Y-5.275
X8.5266Y-5.2175
X8.7234Y-5.1978
X8.725Y-5.175
X7.725Y-6.025
X7.7766Y-5.9675
X7.9734Y-5.9478
X7.975Y-5.925
T2
G00X5.5125Y-5.0389
M15
G01X5.5125Y-5.0861
M16
G05
G00X5.5125Y-5.216
M15
G01X5.5125Y-5.2633
M16
G05
G00X5.8Y-5.0389
M15
G01X5.8Y-5.0861
M16
G05
G00X5.8Y-5.216
M15
G01X5.8Y-5.2633
M16
G05
T0
M30
