G04 #@! TF.GenerationSoftware,KiCad,Pcbnew,(5.1.4-0-10_14)*
G04 #@! TF.CreationDate,2020-08-22T16:13:25+02:00*
G04 #@! TF.ProjectId,keyboard-pcb-tutorial,6b657962-6f61-4726-942d-7063622d7475,rev?*
G04 #@! TF.SameCoordinates,Original*
G04 #@! TF.FileFunction,Legend,Bot*
G04 #@! TF.FilePolarity,Positive*
%FSLAX46Y46*%
G04 Gerber Fmt 4.6, Leading zero omitted, Abs format (unit mm)*
G04 Created by KiCad (PCBNEW (5.1.4-0-10_14)) date 2020-08-22 16:13:25*
%MOMM*%
%LPD*%
G04 APERTURE LIST*
%ADD10C,0.120000*%
%ADD11C,0.150000*%
G04 APERTURE END LIST*
D10*
X175831250Y-134206250D02*
X171831250Y-134206250D01*
X175831250Y-130906250D02*
X175831250Y-134206250D01*
D11*
X139818750Y-128587500D02*
X139818750Y-134037500D01*
X147518750Y-128587500D02*
X147518750Y-134037500D01*
X139818750Y-134037500D02*
X147518750Y-134037500D01*
X169450000Y-150650000D02*
X168175000Y-150650000D01*
X179800000Y-151225000D02*
X179125000Y-151225000D01*
X179800000Y-140875000D02*
X179125000Y-140875000D01*
X169450000Y-140875000D02*
X170125000Y-140875000D01*
X169450000Y-151225000D02*
X170125000Y-151225000D01*
X169450000Y-140875000D02*
X169450000Y-141550000D01*
X179800000Y-140875000D02*
X179800000Y-141550000D01*
X179800000Y-151225000D02*
X179800000Y-150550000D01*
X169450000Y-151225000D02*
X169450000Y-150650000D01*
X143887500Y-157737500D02*
X138687500Y-157737500D01*
X138687500Y-157737500D02*
X138687500Y-162937500D01*
X138687500Y-162937500D02*
X143887500Y-162937500D01*
X143887500Y-162937500D02*
X143887500Y-157737500D01*
X142287500Y-160337500D02*
G75*
G03X142287500Y-160337500I-1000000J0D01*
G01*
D10*
X183440000Y-151071078D02*
X183440000Y-150553922D01*
X184860000Y-151071078D02*
X184860000Y-150553922D01*
X140577500Y-139958578D02*
X140577500Y-139441422D01*
X141997500Y-139958578D02*
X141997500Y-139441422D01*
X144546250Y-139958578D02*
X144546250Y-139441422D01*
X145966250Y-139958578D02*
X145966250Y-139441422D01*
X161047500Y-136266422D02*
X161047500Y-136783578D01*
X159627500Y-136266422D02*
X159627500Y-136783578D01*
X137996250Y-149827064D02*
X137996250Y-148622936D01*
X139816250Y-149827064D02*
X139816250Y-148622936D01*
X228012500Y-157825000D02*
X228012500Y-153925000D01*
X226012500Y-157825000D02*
X226012500Y-153925000D01*
X228012500Y-157825000D02*
X226012500Y-157825000D01*
X208962500Y-157825000D02*
X208962500Y-153925000D01*
X206962500Y-157825000D02*
X206962500Y-153925000D01*
X208962500Y-157825000D02*
X206962500Y-157825000D01*
X228012500Y-138775000D02*
X228012500Y-134875000D01*
X226012500Y-138775000D02*
X226012500Y-134875000D01*
X228012500Y-138775000D02*
X226012500Y-138775000D01*
X208962500Y-138775000D02*
X208962500Y-134875000D01*
X206962500Y-138775000D02*
X206962500Y-134875000D01*
X208962500Y-138775000D02*
X206962500Y-138775000D01*
X163428750Y-151347672D02*
X163428750Y-151864828D01*
X162008750Y-151347672D02*
X162008750Y-151864828D01*
X179646078Y-156285000D02*
X179128922Y-156285000D01*
X179646078Y-154865000D02*
X179128922Y-154865000D01*
X183440000Y-141546078D02*
X183440000Y-141028922D01*
X184860000Y-141546078D02*
X184860000Y-141028922D01*
X162802500Y-136783578D02*
X162802500Y-136266422D01*
X164222500Y-136783578D02*
X164222500Y-136266422D01*
X165810000Y-141822672D02*
X165810000Y-142339828D01*
X164390000Y-141822672D02*
X164390000Y-142339828D01*
X169778750Y-132297672D02*
X169778750Y-132814828D01*
X168358750Y-132297672D02*
X168358750Y-132814828D01*
X177883750Y-132814828D02*
X177883750Y-132297672D01*
X179303750Y-132814828D02*
X179303750Y-132297672D01*
D11*
X174307440Y-130082440D02*
X174307440Y-130558630D01*
X174640773Y-129558630D02*
X174307440Y-130082440D01*
X173974107Y-129558630D01*
X173116964Y-130558630D02*
X173688392Y-130558630D01*
X173402678Y-130558630D02*
X173402678Y-129558630D01*
X173497916Y-129701488D01*
X173593154Y-129796726D01*
X173688392Y-129844345D01*
X145406845Y-130071880D02*
X145406845Y-130881404D01*
X145359226Y-130976642D01*
X145311607Y-131024261D01*
X145216369Y-131071880D01*
X145025892Y-131071880D01*
X144930654Y-131024261D01*
X144883035Y-130976642D01*
X144835416Y-130881404D01*
X144835416Y-130071880D01*
X144406845Y-131024261D02*
X144263988Y-131071880D01*
X144025892Y-131071880D01*
X143930654Y-131024261D01*
X143883035Y-130976642D01*
X143835416Y-130881404D01*
X143835416Y-130786166D01*
X143883035Y-130690928D01*
X143930654Y-130643309D01*
X144025892Y-130595690D01*
X144216369Y-130548071D01*
X144311607Y-130500452D01*
X144359226Y-130452833D01*
X144406845Y-130357595D01*
X144406845Y-130262357D01*
X144359226Y-130167119D01*
X144311607Y-130119500D01*
X144216369Y-130071880D01*
X143978273Y-130071880D01*
X143835416Y-130119500D01*
X143073511Y-130548071D02*
X142930654Y-130595690D01*
X142883035Y-130643309D01*
X142835416Y-130738547D01*
X142835416Y-130881404D01*
X142883035Y-130976642D01*
X142930654Y-131024261D01*
X143025892Y-131071880D01*
X143406845Y-131071880D01*
X143406845Y-130071880D01*
X143073511Y-130071880D01*
X142978273Y-130119500D01*
X142930654Y-130167119D01*
X142883035Y-130262357D01*
X142883035Y-130357595D01*
X142930654Y-130452833D01*
X142978273Y-130500452D01*
X143073511Y-130548071D01*
X143406845Y-130548071D01*
X141883035Y-131071880D02*
X142454464Y-131071880D01*
X142168750Y-131071880D02*
X142168750Y-130071880D01*
X142263988Y-130214738D01*
X142359226Y-130309976D01*
X142454464Y-130357595D01*
X175386904Y-152952380D02*
X175386904Y-153761904D01*
X175339285Y-153857142D01*
X175291666Y-153904761D01*
X175196428Y-153952380D01*
X175005952Y-153952380D01*
X174910714Y-153904761D01*
X174863095Y-153857142D01*
X174815476Y-153761904D01*
X174815476Y-152952380D01*
X173815476Y-153952380D02*
X174386904Y-153952380D01*
X174101190Y-153952380D02*
X174101190Y-152952380D01*
X174196428Y-153095238D01*
X174291666Y-153190476D01*
X174386904Y-153238095D01*
X142620833Y-164806261D02*
X142477976Y-164853880D01*
X142239880Y-164853880D01*
X142144642Y-164806261D01*
X142097023Y-164758642D01*
X142049404Y-164663404D01*
X142049404Y-164568166D01*
X142097023Y-164472928D01*
X142144642Y-164425309D01*
X142239880Y-164377690D01*
X142430357Y-164330071D01*
X142525595Y-164282452D01*
X142573214Y-164234833D01*
X142620833Y-164139595D01*
X142620833Y-164044357D01*
X142573214Y-163949119D01*
X142525595Y-163901500D01*
X142430357Y-163853880D01*
X142192261Y-163853880D01*
X142049404Y-163901500D01*
X141716071Y-163853880D02*
X141477976Y-164853880D01*
X141287500Y-164139595D01*
X141097023Y-164853880D01*
X140858928Y-163853880D01*
X139954166Y-164853880D02*
X140525595Y-164853880D01*
X140239880Y-164853880D02*
X140239880Y-163853880D01*
X140335119Y-163996738D01*
X140430357Y-164091976D01*
X140525595Y-164139595D01*
X186252380Y-150645833D02*
X185776190Y-150312500D01*
X186252380Y-150074404D02*
X185252380Y-150074404D01*
X185252380Y-150455357D01*
X185300000Y-150550595D01*
X185347619Y-150598214D01*
X185442857Y-150645833D01*
X185585714Y-150645833D01*
X185680952Y-150598214D01*
X185728571Y-150550595D01*
X185776190Y-150455357D01*
X185776190Y-150074404D01*
X185585714Y-151502976D02*
X186252380Y-151502976D01*
X185204761Y-151264880D02*
X185919047Y-151026785D01*
X185919047Y-151645833D01*
X143389880Y-139533333D02*
X142913690Y-139200000D01*
X143389880Y-138961904D02*
X142389880Y-138961904D01*
X142389880Y-139342857D01*
X142437500Y-139438095D01*
X142485119Y-139485714D01*
X142580357Y-139533333D01*
X142723214Y-139533333D01*
X142818452Y-139485714D01*
X142866071Y-139438095D01*
X142913690Y-139342857D01*
X142913690Y-138961904D01*
X142389880Y-139866666D02*
X142389880Y-140485714D01*
X142770833Y-140152380D01*
X142770833Y-140295238D01*
X142818452Y-140390476D01*
X142866071Y-140438095D01*
X142961309Y-140485714D01*
X143199404Y-140485714D01*
X143294642Y-140438095D01*
X143342261Y-140390476D01*
X143389880Y-140295238D01*
X143389880Y-140009523D01*
X143342261Y-139914285D01*
X143294642Y-139866666D01*
X147358630Y-139533333D02*
X146882440Y-139200000D01*
X147358630Y-138961904D02*
X146358630Y-138961904D01*
X146358630Y-139342857D01*
X146406250Y-139438095D01*
X146453869Y-139485714D01*
X146549107Y-139533333D01*
X146691964Y-139533333D01*
X146787202Y-139485714D01*
X146834821Y-139438095D01*
X146882440Y-139342857D01*
X146882440Y-138961904D01*
X146453869Y-139914285D02*
X146406250Y-139961904D01*
X146358630Y-140057142D01*
X146358630Y-140295238D01*
X146406250Y-140390476D01*
X146453869Y-140438095D01*
X146549107Y-140485714D01*
X146644345Y-140485714D01*
X146787202Y-140438095D01*
X147358630Y-139866666D01*
X147358630Y-140485714D01*
X159139880Y-136358333D02*
X158663690Y-136025000D01*
X159139880Y-135786904D02*
X158139880Y-135786904D01*
X158139880Y-136167857D01*
X158187500Y-136263095D01*
X158235119Y-136310714D01*
X158330357Y-136358333D01*
X158473214Y-136358333D01*
X158568452Y-136310714D01*
X158616071Y-136263095D01*
X158663690Y-136167857D01*
X158663690Y-135786904D01*
X159139880Y-137310714D02*
X159139880Y-136739285D01*
X159139880Y-137025000D02*
X158139880Y-137025000D01*
X158282738Y-136929761D01*
X158377976Y-136834523D01*
X158425595Y-136739285D01*
X140654821Y-148891666D02*
X140654821Y-148558333D01*
X141178630Y-148558333D02*
X140178630Y-148558333D01*
X140178630Y-149034523D01*
X141178630Y-149939285D02*
X141178630Y-149367857D01*
X141178630Y-149653571D02*
X140178630Y-149653571D01*
X140321488Y-149558333D01*
X140416726Y-149463095D01*
X140464345Y-149367857D01*
X229464880Y-154836904D02*
X228464880Y-154836904D01*
X228464880Y-155075000D01*
X228512500Y-155217857D01*
X228607738Y-155313095D01*
X228702976Y-155360714D01*
X228893452Y-155408333D01*
X229036309Y-155408333D01*
X229226785Y-155360714D01*
X229322023Y-155313095D01*
X229417261Y-155217857D01*
X229464880Y-155075000D01*
X229464880Y-154836904D01*
X228798214Y-156265476D02*
X229464880Y-156265476D01*
X228417261Y-156027380D02*
X229131547Y-155789285D01*
X229131547Y-156408333D01*
X210414880Y-154836904D02*
X209414880Y-154836904D01*
X209414880Y-155075000D01*
X209462500Y-155217857D01*
X209557738Y-155313095D01*
X209652976Y-155360714D01*
X209843452Y-155408333D01*
X209986309Y-155408333D01*
X210176785Y-155360714D01*
X210272023Y-155313095D01*
X210367261Y-155217857D01*
X210414880Y-155075000D01*
X210414880Y-154836904D01*
X209414880Y-155741666D02*
X209414880Y-156360714D01*
X209795833Y-156027380D01*
X209795833Y-156170238D01*
X209843452Y-156265476D01*
X209891071Y-156313095D01*
X209986309Y-156360714D01*
X210224404Y-156360714D01*
X210319642Y-156313095D01*
X210367261Y-156265476D01*
X210414880Y-156170238D01*
X210414880Y-155884523D01*
X210367261Y-155789285D01*
X210319642Y-155741666D01*
X229464880Y-135786904D02*
X228464880Y-135786904D01*
X228464880Y-136025000D01*
X228512500Y-136167857D01*
X228607738Y-136263095D01*
X228702976Y-136310714D01*
X228893452Y-136358333D01*
X229036309Y-136358333D01*
X229226785Y-136310714D01*
X229322023Y-136263095D01*
X229417261Y-136167857D01*
X229464880Y-136025000D01*
X229464880Y-135786904D01*
X228560119Y-136739285D02*
X228512500Y-136786904D01*
X228464880Y-136882142D01*
X228464880Y-137120238D01*
X228512500Y-137215476D01*
X228560119Y-137263095D01*
X228655357Y-137310714D01*
X228750595Y-137310714D01*
X228893452Y-137263095D01*
X229464880Y-136691666D01*
X229464880Y-137310714D01*
X210414880Y-135786904D02*
X209414880Y-135786904D01*
X209414880Y-136025000D01*
X209462500Y-136167857D01*
X209557738Y-136263095D01*
X209652976Y-136310714D01*
X209843452Y-136358333D01*
X209986309Y-136358333D01*
X210176785Y-136310714D01*
X210272023Y-136263095D01*
X210367261Y-136167857D01*
X210414880Y-136025000D01*
X210414880Y-135786904D01*
X210414880Y-137310714D02*
X210414880Y-136739285D01*
X210414880Y-137025000D02*
X209414880Y-137025000D01*
X209557738Y-136929761D01*
X209652976Y-136834523D01*
X209700595Y-136739285D01*
X161425892Y-151439583D02*
X161473511Y-151391964D01*
X161521130Y-151249107D01*
X161521130Y-151153869D01*
X161473511Y-151011011D01*
X161378273Y-150915773D01*
X161283035Y-150868154D01*
X161092559Y-150820535D01*
X160949702Y-150820535D01*
X160759226Y-150868154D01*
X160663988Y-150915773D01*
X160568750Y-151011011D01*
X160521130Y-151153869D01*
X160521130Y-151249107D01*
X160568750Y-151391964D01*
X160616369Y-151439583D01*
X160521130Y-151772916D02*
X160521130Y-152439583D01*
X161521130Y-152011011D01*
X179554166Y-154282142D02*
X179601785Y-154329761D01*
X179744642Y-154377380D01*
X179839880Y-154377380D01*
X179982738Y-154329761D01*
X180077976Y-154234523D01*
X180125595Y-154139285D01*
X180173214Y-153948809D01*
X180173214Y-153805952D01*
X180125595Y-153615476D01*
X180077976Y-153520238D01*
X179982738Y-153425000D01*
X179839880Y-153377380D01*
X179744642Y-153377380D01*
X179601785Y-153425000D01*
X179554166Y-153472619D01*
X178697023Y-153377380D02*
X178887500Y-153377380D01*
X178982738Y-153425000D01*
X179030357Y-153472619D01*
X179125595Y-153615476D01*
X179173214Y-153805952D01*
X179173214Y-154186904D01*
X179125595Y-154282142D01*
X179077976Y-154329761D01*
X178982738Y-154377380D01*
X178792261Y-154377380D01*
X178697023Y-154329761D01*
X178649404Y-154282142D01*
X178601785Y-154186904D01*
X178601785Y-153948809D01*
X178649404Y-153853571D01*
X178697023Y-153805952D01*
X178792261Y-153758333D01*
X178982738Y-153758333D01*
X179077976Y-153805952D01*
X179125595Y-153853571D01*
X179173214Y-153948809D01*
X186157142Y-141120833D02*
X186204761Y-141073214D01*
X186252380Y-140930357D01*
X186252380Y-140835119D01*
X186204761Y-140692261D01*
X186109523Y-140597023D01*
X186014285Y-140549404D01*
X185823809Y-140501785D01*
X185680952Y-140501785D01*
X185490476Y-140549404D01*
X185395238Y-140597023D01*
X185300000Y-140692261D01*
X185252380Y-140835119D01*
X185252380Y-140930357D01*
X185300000Y-141073214D01*
X185347619Y-141120833D01*
X185252380Y-142025595D02*
X185252380Y-141549404D01*
X185728571Y-141501785D01*
X185680952Y-141549404D01*
X185633333Y-141644642D01*
X185633333Y-141882738D01*
X185680952Y-141977976D01*
X185728571Y-142025595D01*
X185823809Y-142073214D01*
X186061904Y-142073214D01*
X186157142Y-142025595D01*
X186204761Y-141977976D01*
X186252380Y-141882738D01*
X186252380Y-141644642D01*
X186204761Y-141549404D01*
X186157142Y-141501785D01*
X165519642Y-136358333D02*
X165567261Y-136310714D01*
X165614880Y-136167857D01*
X165614880Y-136072619D01*
X165567261Y-135929761D01*
X165472023Y-135834523D01*
X165376785Y-135786904D01*
X165186309Y-135739285D01*
X165043452Y-135739285D01*
X164852976Y-135786904D01*
X164757738Y-135834523D01*
X164662500Y-135929761D01*
X164614880Y-136072619D01*
X164614880Y-136167857D01*
X164662500Y-136310714D01*
X164710119Y-136358333D01*
X164948214Y-137215476D02*
X165614880Y-137215476D01*
X164567261Y-136977380D02*
X165281547Y-136739285D01*
X165281547Y-137358333D01*
X163807142Y-141914583D02*
X163854761Y-141866964D01*
X163902380Y-141724107D01*
X163902380Y-141628869D01*
X163854761Y-141486011D01*
X163759523Y-141390773D01*
X163664285Y-141343154D01*
X163473809Y-141295535D01*
X163330952Y-141295535D01*
X163140476Y-141343154D01*
X163045238Y-141390773D01*
X162950000Y-141486011D01*
X162902380Y-141628869D01*
X162902380Y-141724107D01*
X162950000Y-141866964D01*
X162997619Y-141914583D01*
X162902380Y-142247916D02*
X162902380Y-142866964D01*
X163283333Y-142533630D01*
X163283333Y-142676488D01*
X163330952Y-142771726D01*
X163378571Y-142819345D01*
X163473809Y-142866964D01*
X163711904Y-142866964D01*
X163807142Y-142819345D01*
X163854761Y-142771726D01*
X163902380Y-142676488D01*
X163902380Y-142390773D01*
X163854761Y-142295535D01*
X163807142Y-142247916D01*
X167775892Y-132389583D02*
X167823511Y-132341964D01*
X167871130Y-132199107D01*
X167871130Y-132103869D01*
X167823511Y-131961011D01*
X167728273Y-131865773D01*
X167633035Y-131818154D01*
X167442559Y-131770535D01*
X167299702Y-131770535D01*
X167109226Y-131818154D01*
X167013988Y-131865773D01*
X166918750Y-131961011D01*
X166871130Y-132103869D01*
X166871130Y-132199107D01*
X166918750Y-132341964D01*
X166966369Y-132389583D01*
X166966369Y-132770535D02*
X166918750Y-132818154D01*
X166871130Y-132913392D01*
X166871130Y-133151488D01*
X166918750Y-133246726D01*
X166966369Y-133294345D01*
X167061607Y-133341964D01*
X167156845Y-133341964D01*
X167299702Y-133294345D01*
X167871130Y-132722916D01*
X167871130Y-133341964D01*
X180600892Y-132389583D02*
X180648511Y-132341964D01*
X180696130Y-132199107D01*
X180696130Y-132103869D01*
X180648511Y-131961011D01*
X180553273Y-131865773D01*
X180458035Y-131818154D01*
X180267559Y-131770535D01*
X180124702Y-131770535D01*
X179934226Y-131818154D01*
X179838988Y-131865773D01*
X179743750Y-131961011D01*
X179696130Y-132103869D01*
X179696130Y-132199107D01*
X179743750Y-132341964D01*
X179791369Y-132389583D01*
X180696130Y-133341964D02*
X180696130Y-132770535D01*
X180696130Y-133056250D02*
X179696130Y-133056250D01*
X179838988Y-132961011D01*
X179934226Y-132865773D01*
X179981845Y-132770535D01*
M02*
