G04 #@! TF.GenerationSoftware,KiCad,Pcbnew,(5.1.4-0-10_14)*
G04 #@! TF.CreationDate,2020-08-22T16:13:25+02:00*
G04 #@! TF.ProjectId,keyboard-pcb-tutorial,6b657962-6f61-4726-942d-7063622d7475,rev?*
G04 #@! TF.SameCoordinates,Original*
G04 #@! TF.FileFunction,Legend,Top*
G04 #@! TF.FilePolarity,Positive*
%FSLAX46Y46*%
G04 Gerber Fmt 4.6, Leading zero omitted, Abs format (unit mm)*
G04 Created by KiCad (PCBNEW (5.1.4-0-10_14)) date 2020-08-22 16:13:25*
%MOMM*%
%LPD*%
G04 APERTURE LIST*
%ADD10C,0.150000*%
G04 APERTURE END LIST*
D10*
X157488392Y-158218750D02*
X157393154Y-158171130D01*
X157250297Y-158171130D01*
X157107440Y-158218750D01*
X157012202Y-158313988D01*
X156964583Y-158409226D01*
X156916964Y-158599702D01*
X156916964Y-158742559D01*
X156964583Y-158933035D01*
X157012202Y-159028273D01*
X157107440Y-159123511D01*
X157250297Y-159171130D01*
X157345535Y-159171130D01*
X157488392Y-159123511D01*
X157536011Y-159075892D01*
X157536011Y-158742559D01*
X157345535Y-158742559D01*
X157964583Y-159171130D02*
X157964583Y-158504464D01*
X157964583Y-158694940D02*
X158012202Y-158599702D01*
X158059821Y-158552083D01*
X158155059Y-158504464D01*
X158250297Y-158504464D01*
X158964583Y-159123511D02*
X158869345Y-159171130D01*
X158678869Y-159171130D01*
X158583630Y-159123511D01*
X158536011Y-159028273D01*
X158536011Y-158647321D01*
X158583630Y-158552083D01*
X158678869Y-158504464D01*
X158869345Y-158504464D01*
X158964583Y-158552083D01*
X159012202Y-158647321D01*
X159012202Y-158742559D01*
X158536011Y-158837797D01*
X159869345Y-159171130D02*
X159869345Y-158647321D01*
X159821726Y-158552083D01*
X159726488Y-158504464D01*
X159536011Y-158504464D01*
X159440773Y-158552083D01*
X159869345Y-159123511D02*
X159774107Y-159171130D01*
X159536011Y-159171130D01*
X159440773Y-159123511D01*
X159393154Y-159028273D01*
X159393154Y-158933035D01*
X159440773Y-158837797D01*
X159536011Y-158790178D01*
X159774107Y-158790178D01*
X159869345Y-158742559D01*
X160202678Y-158504464D02*
X160583630Y-158504464D01*
X160345535Y-158171130D02*
X160345535Y-159028273D01*
X160393154Y-159123511D01*
X160488392Y-159171130D01*
X160583630Y-159171130D01*
X160821726Y-158171130D02*
X161059821Y-159171130D01*
X161250297Y-158456845D01*
X161440773Y-159171130D01*
X161678869Y-158171130D01*
X162059821Y-159171130D02*
X162059821Y-158504464D01*
X162059821Y-158171130D02*
X162012202Y-158218750D01*
X162059821Y-158266369D01*
X162107440Y-158218750D01*
X162059821Y-158171130D01*
X162059821Y-158266369D01*
X162440773Y-158504464D02*
X162964583Y-158504464D01*
X162440773Y-159171130D01*
X162964583Y-159171130D01*
X163774107Y-159171130D02*
X163774107Y-158647321D01*
X163726488Y-158552083D01*
X163631250Y-158504464D01*
X163440773Y-158504464D01*
X163345535Y-158552083D01*
X163774107Y-159123511D02*
X163678869Y-159171130D01*
X163440773Y-159171130D01*
X163345535Y-159123511D01*
X163297916Y-159028273D01*
X163297916Y-158933035D01*
X163345535Y-158837797D01*
X163440773Y-158790178D01*
X163678869Y-158790178D01*
X163774107Y-158742559D01*
X164250297Y-159171130D02*
X164250297Y-158504464D01*
X164250297Y-158694940D02*
X164297916Y-158599702D01*
X164345535Y-158552083D01*
X164440773Y-158504464D01*
X164536011Y-158504464D01*
X165297916Y-159171130D02*
X165297916Y-158171130D01*
X165297916Y-159123511D02*
X165202678Y-159171130D01*
X165012202Y-159171130D01*
X164916964Y-159123511D01*
X164869345Y-159075892D01*
X164821726Y-158980654D01*
X164821726Y-158694940D01*
X164869345Y-158599702D01*
X164916964Y-158552083D01*
X165012202Y-158504464D01*
X165202678Y-158504464D01*
X165297916Y-158552083D01*
X157083630Y-160487797D02*
X157940773Y-160487797D01*
X159036011Y-159916369D02*
X159083630Y-159868750D01*
X159178869Y-159821130D01*
X159416964Y-159821130D01*
X159512202Y-159868750D01*
X159559821Y-159916369D01*
X159607440Y-160011607D01*
X159607440Y-160106845D01*
X159559821Y-160249702D01*
X158988392Y-160821130D01*
X159607440Y-160821130D01*
X160226488Y-159821130D02*
X160321726Y-159821130D01*
X160416964Y-159868750D01*
X160464583Y-159916369D01*
X160512202Y-160011607D01*
X160559821Y-160202083D01*
X160559821Y-160440178D01*
X160512202Y-160630654D01*
X160464583Y-160725892D01*
X160416964Y-160773511D01*
X160321726Y-160821130D01*
X160226488Y-160821130D01*
X160131250Y-160773511D01*
X160083630Y-160725892D01*
X160036011Y-160630654D01*
X159988392Y-160440178D01*
X159988392Y-160202083D01*
X160036011Y-160011607D01*
X160083630Y-159916369D01*
X160131250Y-159868750D01*
X160226488Y-159821130D01*
X160940773Y-159916369D02*
X160988392Y-159868750D01*
X161083630Y-159821130D01*
X161321726Y-159821130D01*
X161416964Y-159868750D01*
X161464583Y-159916369D01*
X161512202Y-160011607D01*
X161512202Y-160106845D01*
X161464583Y-160249702D01*
X160893154Y-160821130D01*
X161512202Y-160821130D01*
X162131250Y-159821130D02*
X162226488Y-159821130D01*
X162321726Y-159868750D01*
X162369345Y-159916369D01*
X162416964Y-160011607D01*
X162464583Y-160202083D01*
X162464583Y-160440178D01*
X162416964Y-160630654D01*
X162369345Y-160725892D01*
X162321726Y-160773511D01*
X162226488Y-160821130D01*
X162131250Y-160821130D01*
X162036011Y-160773511D01*
X161988392Y-160725892D01*
X161940773Y-160630654D01*
X161893154Y-160440178D01*
X161893154Y-160202083D01*
X161940773Y-160011607D01*
X161988392Y-159916369D01*
X162036011Y-159868750D01*
X162131250Y-159821130D01*
X163559821Y-160487797D02*
X164416964Y-160487797D01*
M02*
