G04 #@! TF.GenerationSoftware,KiCad,Pcbnew,(5.1.4-0-10_14)*
G04 #@! TF.CreationDate,2020-08-22T16:13:25+02:00*
G04 #@! TF.ProjectId,keyboard-pcb-tutorial,6b657962-6f61-4726-942d-7063622d7475,rev?*
G04 #@! TF.SameCoordinates,Original*
G04 #@! TF.FileFunction,Soldermask,Top*
G04 #@! TF.FilePolarity,Negative*
%FSLAX46Y46*%
G04 Gerber Fmt 4.6, Leading zero omitted, Abs format (unit mm)*
G04 Created by KiCad (PCBNEW (5.1.4-0-10_14)) date 2020-08-22 16:13:25*
%MOMM*%
%LPD*%
G04 APERTURE LIST*
%ADD10C,0.100000*%
G04 APERTURE END LIST*
D10*
G36*
X219671474Y-153608684D02*
G01*
X219889474Y-153698983D01*
X220043623Y-153762833D01*
X220378548Y-153986623D01*
X220663377Y-154271452D01*
X220887167Y-154606377D01*
X220919562Y-154684586D01*
X221041316Y-154978526D01*
X221119900Y-155373594D01*
X221119900Y-155776406D01*
X221041316Y-156171474D01*
X220990451Y-156294272D01*
X220887167Y-156543623D01*
X220663377Y-156878548D01*
X220378548Y-157163377D01*
X220043623Y-157387167D01*
X219889474Y-157451017D01*
X219671474Y-157541316D01*
X219276406Y-157619900D01*
X218873594Y-157619900D01*
X218478526Y-157541316D01*
X218260526Y-157451017D01*
X218106377Y-157387167D01*
X217771452Y-157163377D01*
X217486623Y-156878548D01*
X217262833Y-156543623D01*
X217159549Y-156294272D01*
X217108684Y-156171474D01*
X217030100Y-155776406D01*
X217030100Y-155373594D01*
X217108684Y-154978526D01*
X217230438Y-154684586D01*
X217262833Y-154606377D01*
X217486623Y-154271452D01*
X217771452Y-153986623D01*
X218106377Y-153762833D01*
X218260526Y-153698983D01*
X218478526Y-153608684D01*
X218873594Y-153530100D01*
X219276406Y-153530100D01*
X219671474Y-153608684D01*
X219671474Y-153608684D01*
G37*
G36*
X200621474Y-153608684D02*
G01*
X200839474Y-153698983D01*
X200993623Y-153762833D01*
X201328548Y-153986623D01*
X201613377Y-154271452D01*
X201837167Y-154606377D01*
X201869562Y-154684586D01*
X201991316Y-154978526D01*
X202069900Y-155373594D01*
X202069900Y-155776406D01*
X201991316Y-156171474D01*
X201940451Y-156294272D01*
X201837167Y-156543623D01*
X201613377Y-156878548D01*
X201328548Y-157163377D01*
X200993623Y-157387167D01*
X200839474Y-157451017D01*
X200621474Y-157541316D01*
X200226406Y-157619900D01*
X199823594Y-157619900D01*
X199428526Y-157541316D01*
X199210526Y-157451017D01*
X199056377Y-157387167D01*
X198721452Y-157163377D01*
X198436623Y-156878548D01*
X198212833Y-156543623D01*
X198109549Y-156294272D01*
X198058684Y-156171474D01*
X197980100Y-155776406D01*
X197980100Y-155373594D01*
X198058684Y-154978526D01*
X198180438Y-154684586D01*
X198212833Y-154606377D01*
X198436623Y-154271452D01*
X198721452Y-153986623D01*
X199056377Y-153762833D01*
X199210526Y-153698983D01*
X199428526Y-153608684D01*
X199823594Y-153530100D01*
X200226406Y-153530100D01*
X200621474Y-153608684D01*
X200621474Y-153608684D01*
G37*
G36*
X205375104Y-154684585D02*
G01*
X205543626Y-154754389D01*
X205695291Y-154855728D01*
X205824272Y-154984709D01*
X205925611Y-155136374D01*
X205995415Y-155304896D01*
X206031000Y-155483797D01*
X206031000Y-155666203D01*
X205995415Y-155845104D01*
X205925611Y-156013626D01*
X205824272Y-156165291D01*
X205695291Y-156294272D01*
X205543626Y-156395611D01*
X205375104Y-156465415D01*
X205196203Y-156501000D01*
X205013797Y-156501000D01*
X204834896Y-156465415D01*
X204666374Y-156395611D01*
X204514709Y-156294272D01*
X204385728Y-156165291D01*
X204284389Y-156013626D01*
X204214585Y-155845104D01*
X204179000Y-155666203D01*
X204179000Y-155483797D01*
X204214585Y-155304896D01*
X204284389Y-155136374D01*
X204385728Y-154984709D01*
X204514709Y-154855728D01*
X204666374Y-154754389D01*
X204834896Y-154684585D01*
X205013797Y-154649000D01*
X205196203Y-154649000D01*
X205375104Y-154684585D01*
X205375104Y-154684585D01*
G37*
G36*
X195215104Y-154684585D02*
G01*
X195383626Y-154754389D01*
X195535291Y-154855728D01*
X195664272Y-154984709D01*
X195765611Y-155136374D01*
X195835415Y-155304896D01*
X195871000Y-155483797D01*
X195871000Y-155666203D01*
X195835415Y-155845104D01*
X195765611Y-156013626D01*
X195664272Y-156165291D01*
X195535291Y-156294272D01*
X195383626Y-156395611D01*
X195215104Y-156465415D01*
X195036203Y-156501000D01*
X194853797Y-156501000D01*
X194674896Y-156465415D01*
X194506374Y-156395611D01*
X194354709Y-156294272D01*
X194225728Y-156165291D01*
X194124389Y-156013626D01*
X194054585Y-155845104D01*
X194019000Y-155666203D01*
X194019000Y-155483797D01*
X194054585Y-155304896D01*
X194124389Y-155136374D01*
X194225728Y-154984709D01*
X194354709Y-154855728D01*
X194506374Y-154754389D01*
X194674896Y-154684585D01*
X194853797Y-154649000D01*
X195036203Y-154649000D01*
X195215104Y-154684585D01*
X195215104Y-154684585D01*
G37*
G36*
X214265104Y-154684585D02*
G01*
X214433626Y-154754389D01*
X214585291Y-154855728D01*
X214714272Y-154984709D01*
X214815611Y-155136374D01*
X214885415Y-155304896D01*
X214921000Y-155483797D01*
X214921000Y-155666203D01*
X214885415Y-155845104D01*
X214815611Y-156013626D01*
X214714272Y-156165291D01*
X214585291Y-156294272D01*
X214433626Y-156395611D01*
X214265104Y-156465415D01*
X214086203Y-156501000D01*
X213903797Y-156501000D01*
X213724896Y-156465415D01*
X213556374Y-156395611D01*
X213404709Y-156294272D01*
X213275728Y-156165291D01*
X213174389Y-156013626D01*
X213104585Y-155845104D01*
X213069000Y-155666203D01*
X213069000Y-155483797D01*
X213104585Y-155304896D01*
X213174389Y-155136374D01*
X213275728Y-154984709D01*
X213404709Y-154855728D01*
X213556374Y-154754389D01*
X213724896Y-154684585D01*
X213903797Y-154649000D01*
X214086203Y-154649000D01*
X214265104Y-154684585D01*
X214265104Y-154684585D01*
G37*
G36*
X224425104Y-154684585D02*
G01*
X224593626Y-154754389D01*
X224745291Y-154855728D01*
X224874272Y-154984709D01*
X224975611Y-155136374D01*
X225045415Y-155304896D01*
X225081000Y-155483797D01*
X225081000Y-155666203D01*
X225045415Y-155845104D01*
X224975611Y-156013626D01*
X224874272Y-156165291D01*
X224745291Y-156294272D01*
X224593626Y-156395611D01*
X224425104Y-156465415D01*
X224246203Y-156501000D01*
X224063797Y-156501000D01*
X223884896Y-156465415D01*
X223716374Y-156395611D01*
X223564709Y-156294272D01*
X223435728Y-156165291D01*
X223334389Y-156013626D01*
X223264585Y-155845104D01*
X223229000Y-155666203D01*
X223229000Y-155483797D01*
X223264585Y-155304896D01*
X223334389Y-155136374D01*
X223435728Y-154984709D01*
X223564709Y-154855728D01*
X223716374Y-154754389D01*
X223884896Y-154684585D01*
X224063797Y-154649000D01*
X224246203Y-154649000D01*
X224425104Y-154684585D01*
X224425104Y-154684585D01*
G37*
G36*
X219671474Y-134558684D02*
G01*
X219889474Y-134648983D01*
X220043623Y-134712833D01*
X220378548Y-134936623D01*
X220663377Y-135221452D01*
X220887167Y-135556377D01*
X220919562Y-135634586D01*
X221041316Y-135928526D01*
X221119900Y-136323594D01*
X221119900Y-136726406D01*
X221041316Y-137121474D01*
X220990451Y-137244272D01*
X220887167Y-137493623D01*
X220663377Y-137828548D01*
X220378548Y-138113377D01*
X220043623Y-138337167D01*
X219889474Y-138401017D01*
X219671474Y-138491316D01*
X219276406Y-138569900D01*
X218873594Y-138569900D01*
X218478526Y-138491316D01*
X218260526Y-138401017D01*
X218106377Y-138337167D01*
X217771452Y-138113377D01*
X217486623Y-137828548D01*
X217262833Y-137493623D01*
X217159549Y-137244272D01*
X217108684Y-137121474D01*
X217030100Y-136726406D01*
X217030100Y-136323594D01*
X217108684Y-135928526D01*
X217230438Y-135634586D01*
X217262833Y-135556377D01*
X217486623Y-135221452D01*
X217771452Y-134936623D01*
X218106377Y-134712833D01*
X218260526Y-134648983D01*
X218478526Y-134558684D01*
X218873594Y-134480100D01*
X219276406Y-134480100D01*
X219671474Y-134558684D01*
X219671474Y-134558684D01*
G37*
G36*
X200621474Y-134558684D02*
G01*
X200839474Y-134648983D01*
X200993623Y-134712833D01*
X201328548Y-134936623D01*
X201613377Y-135221452D01*
X201837167Y-135556377D01*
X201869562Y-135634586D01*
X201991316Y-135928526D01*
X202069900Y-136323594D01*
X202069900Y-136726406D01*
X201991316Y-137121474D01*
X201940451Y-137244272D01*
X201837167Y-137493623D01*
X201613377Y-137828548D01*
X201328548Y-138113377D01*
X200993623Y-138337167D01*
X200839474Y-138401017D01*
X200621474Y-138491316D01*
X200226406Y-138569900D01*
X199823594Y-138569900D01*
X199428526Y-138491316D01*
X199210526Y-138401017D01*
X199056377Y-138337167D01*
X198721452Y-138113377D01*
X198436623Y-137828548D01*
X198212833Y-137493623D01*
X198109549Y-137244272D01*
X198058684Y-137121474D01*
X197980100Y-136726406D01*
X197980100Y-136323594D01*
X198058684Y-135928526D01*
X198180438Y-135634586D01*
X198212833Y-135556377D01*
X198436623Y-135221452D01*
X198721452Y-134936623D01*
X199056377Y-134712833D01*
X199210526Y-134648983D01*
X199428526Y-134558684D01*
X199823594Y-134480100D01*
X200226406Y-134480100D01*
X200621474Y-134558684D01*
X200621474Y-134558684D01*
G37*
G36*
X224425104Y-135634585D02*
G01*
X224593626Y-135704389D01*
X224745291Y-135805728D01*
X224874272Y-135934709D01*
X224975611Y-136086374D01*
X225045415Y-136254896D01*
X225081000Y-136433797D01*
X225081000Y-136616203D01*
X225045415Y-136795104D01*
X224975611Y-136963626D01*
X224874272Y-137115291D01*
X224745291Y-137244272D01*
X224593626Y-137345611D01*
X224425104Y-137415415D01*
X224246203Y-137451000D01*
X224063797Y-137451000D01*
X223884896Y-137415415D01*
X223716374Y-137345611D01*
X223564709Y-137244272D01*
X223435728Y-137115291D01*
X223334389Y-136963626D01*
X223264585Y-136795104D01*
X223229000Y-136616203D01*
X223229000Y-136433797D01*
X223264585Y-136254896D01*
X223334389Y-136086374D01*
X223435728Y-135934709D01*
X223564709Y-135805728D01*
X223716374Y-135704389D01*
X223884896Y-135634585D01*
X224063797Y-135599000D01*
X224246203Y-135599000D01*
X224425104Y-135634585D01*
X224425104Y-135634585D01*
G37*
G36*
X214265104Y-135634585D02*
G01*
X214433626Y-135704389D01*
X214585291Y-135805728D01*
X214714272Y-135934709D01*
X214815611Y-136086374D01*
X214885415Y-136254896D01*
X214921000Y-136433797D01*
X214921000Y-136616203D01*
X214885415Y-136795104D01*
X214815611Y-136963626D01*
X214714272Y-137115291D01*
X214585291Y-137244272D01*
X214433626Y-137345611D01*
X214265104Y-137415415D01*
X214086203Y-137451000D01*
X213903797Y-137451000D01*
X213724896Y-137415415D01*
X213556374Y-137345611D01*
X213404709Y-137244272D01*
X213275728Y-137115291D01*
X213174389Y-136963626D01*
X213104585Y-136795104D01*
X213069000Y-136616203D01*
X213069000Y-136433797D01*
X213104585Y-136254896D01*
X213174389Y-136086374D01*
X213275728Y-135934709D01*
X213404709Y-135805728D01*
X213556374Y-135704389D01*
X213724896Y-135634585D01*
X213903797Y-135599000D01*
X214086203Y-135599000D01*
X214265104Y-135634585D01*
X214265104Y-135634585D01*
G37*
G36*
X205375104Y-135634585D02*
G01*
X205543626Y-135704389D01*
X205695291Y-135805728D01*
X205824272Y-135934709D01*
X205925611Y-136086374D01*
X205995415Y-136254896D01*
X206031000Y-136433797D01*
X206031000Y-136616203D01*
X205995415Y-136795104D01*
X205925611Y-136963626D01*
X205824272Y-137115291D01*
X205695291Y-137244272D01*
X205543626Y-137345611D01*
X205375104Y-137415415D01*
X205196203Y-137451000D01*
X205013797Y-137451000D01*
X204834896Y-137415415D01*
X204666374Y-137345611D01*
X204514709Y-137244272D01*
X204385728Y-137115291D01*
X204284389Y-136963626D01*
X204214585Y-136795104D01*
X204179000Y-136616203D01*
X204179000Y-136433797D01*
X204214585Y-136254896D01*
X204284389Y-136086374D01*
X204385728Y-135934709D01*
X204514709Y-135805728D01*
X204666374Y-135704389D01*
X204834896Y-135634585D01*
X205013797Y-135599000D01*
X205196203Y-135599000D01*
X205375104Y-135634585D01*
X205375104Y-135634585D01*
G37*
G36*
X195215104Y-135634585D02*
G01*
X195383626Y-135704389D01*
X195535291Y-135805728D01*
X195664272Y-135934709D01*
X195765611Y-136086374D01*
X195835415Y-136254896D01*
X195871000Y-136433797D01*
X195871000Y-136616203D01*
X195835415Y-136795104D01*
X195765611Y-136963626D01*
X195664272Y-137115291D01*
X195535291Y-137244272D01*
X195383626Y-137345611D01*
X195215104Y-137415415D01*
X195036203Y-137451000D01*
X194853797Y-137451000D01*
X194674896Y-137415415D01*
X194506374Y-137345611D01*
X194354709Y-137244272D01*
X194225728Y-137115291D01*
X194124389Y-136963626D01*
X194054585Y-136795104D01*
X194019000Y-136616203D01*
X194019000Y-136433797D01*
X194054585Y-136254896D01*
X194124389Y-136086374D01*
X194225728Y-135934709D01*
X194354709Y-135805728D01*
X194506374Y-135704389D01*
X194674896Y-135634585D01*
X194853797Y-135599000D01*
X195036203Y-135599000D01*
X195215104Y-135634585D01*
X195215104Y-135634585D01*
G37*
G36*
X140195377Y-131699537D02*
G01*
X140365216Y-131751057D01*
X140521741Y-131834722D01*
X140557479Y-131864052D01*
X140658936Y-131947314D01*
X140742198Y-132048771D01*
X140771528Y-132084509D01*
X140855193Y-132241034D01*
X140906713Y-132410873D01*
X140919750Y-132543242D01*
X140919750Y-133631758D01*
X140906713Y-133764127D01*
X140855193Y-133933966D01*
X140771528Y-134090491D01*
X140742198Y-134126229D01*
X140658936Y-134227686D01*
X140521739Y-134340279D01*
X140365217Y-134423942D01*
X140365215Y-134423943D01*
X140195376Y-134475463D01*
X140018750Y-134492859D01*
X139842123Y-134475463D01*
X139672284Y-134423943D01*
X139515759Y-134340278D01*
X139480021Y-134310948D01*
X139378564Y-134227686D01*
X139265971Y-134090489D01*
X139182308Y-133933967D01*
X139182307Y-133933965D01*
X139130787Y-133764126D01*
X139117750Y-133631757D01*
X139117751Y-132543242D01*
X139130788Y-132410873D01*
X139182308Y-132241034D01*
X139265973Y-132084509D01*
X139295303Y-132048771D01*
X139378565Y-131947314D01*
X139480022Y-131864052D01*
X139515760Y-131834722D01*
X139672285Y-131751057D01*
X139842124Y-131699537D01*
X140018750Y-131682141D01*
X140195377Y-131699537D01*
X140195377Y-131699537D01*
G37*
G36*
X147495377Y-131699537D02*
G01*
X147665216Y-131751057D01*
X147821741Y-131834722D01*
X147857479Y-131864052D01*
X147958936Y-131947314D01*
X148042198Y-132048771D01*
X148071528Y-132084509D01*
X148155193Y-132241034D01*
X148206713Y-132410873D01*
X148219750Y-132543242D01*
X148219750Y-133631758D01*
X148206713Y-133764127D01*
X148155193Y-133933966D01*
X148071528Y-134090491D01*
X148042198Y-134126229D01*
X147958936Y-134227686D01*
X147821739Y-134340279D01*
X147665217Y-134423942D01*
X147665215Y-134423943D01*
X147495376Y-134475463D01*
X147318750Y-134492859D01*
X147142123Y-134475463D01*
X146972284Y-134423943D01*
X146815759Y-134340278D01*
X146780021Y-134310948D01*
X146678564Y-134227686D01*
X146565971Y-134090489D01*
X146482308Y-133933967D01*
X146482307Y-133933965D01*
X146430787Y-133764126D01*
X146417750Y-133631757D01*
X146417751Y-132543242D01*
X146430788Y-132410873D01*
X146482308Y-132241034D01*
X146565973Y-132084509D01*
X146595303Y-132048771D01*
X146678565Y-131947314D01*
X146780022Y-131864052D01*
X146815760Y-131834722D01*
X146972285Y-131751057D01*
X147142124Y-131699537D01*
X147318750Y-131682141D01*
X147495377Y-131699537D01*
X147495377Y-131699537D01*
G37*
G36*
X140195377Y-127199537D02*
G01*
X140365216Y-127251057D01*
X140521741Y-127334722D01*
X140557479Y-127364052D01*
X140658936Y-127447314D01*
X140742198Y-127548771D01*
X140771528Y-127584509D01*
X140855193Y-127741034D01*
X140906713Y-127910873D01*
X140919750Y-128043242D01*
X140919750Y-129131758D01*
X140906713Y-129264127D01*
X140855193Y-129433966D01*
X140771528Y-129590491D01*
X140742198Y-129626229D01*
X140658936Y-129727686D01*
X140521739Y-129840279D01*
X140365217Y-129923942D01*
X140365215Y-129923943D01*
X140195376Y-129975463D01*
X140018750Y-129992859D01*
X139842123Y-129975463D01*
X139672284Y-129923943D01*
X139515759Y-129840278D01*
X139480021Y-129810948D01*
X139378564Y-129727686D01*
X139265971Y-129590489D01*
X139182308Y-129433967D01*
X139182307Y-129433965D01*
X139130787Y-129264126D01*
X139117750Y-129131757D01*
X139117751Y-128043242D01*
X139130788Y-127910873D01*
X139182308Y-127741034D01*
X139265973Y-127584509D01*
X139295303Y-127548771D01*
X139378565Y-127447314D01*
X139480022Y-127364052D01*
X139515760Y-127334722D01*
X139672285Y-127251057D01*
X139842124Y-127199537D01*
X140018750Y-127182141D01*
X140195377Y-127199537D01*
X140195377Y-127199537D01*
G37*
G36*
X147495377Y-127199537D02*
G01*
X147665216Y-127251057D01*
X147821741Y-127334722D01*
X147857479Y-127364052D01*
X147958936Y-127447314D01*
X148042198Y-127548771D01*
X148071528Y-127584509D01*
X148155193Y-127741034D01*
X148206713Y-127910873D01*
X148219750Y-128043242D01*
X148219750Y-129131758D01*
X148206713Y-129264127D01*
X148155193Y-129433966D01*
X148071528Y-129590491D01*
X148042198Y-129626229D01*
X147958936Y-129727686D01*
X147821739Y-129840279D01*
X147665217Y-129923942D01*
X147665215Y-129923943D01*
X147495376Y-129975463D01*
X147318750Y-129992859D01*
X147142123Y-129975463D01*
X146972284Y-129923943D01*
X146815759Y-129840278D01*
X146780021Y-129810948D01*
X146678564Y-129727686D01*
X146565971Y-129590489D01*
X146482308Y-129433967D01*
X146482307Y-129433965D01*
X146430787Y-129264126D01*
X146417750Y-129131757D01*
X146417751Y-128043242D01*
X146430788Y-127910873D01*
X146482308Y-127741034D01*
X146565973Y-127584509D01*
X146595303Y-127548771D01*
X146678565Y-127447314D01*
X146780022Y-127364052D01*
X146815760Y-127334722D01*
X146972285Y-127251057D01*
X147142124Y-127199537D01*
X147318750Y-127182141D01*
X147495377Y-127199537D01*
X147495377Y-127199537D01*
G37*
M02*
